<svg width="116.96399999999998" height="15.260000000000002" xmlns="http://www.w3.org/2000/svg">
    <defs>
        <linearGradient gradientUnits="objectBoundingBox" y2="0.5" x2="1" y1="0.5" id="a">
            <stop stop-color="#fba44e" offset="0"/>
            <stop stop-color="#d7180c" offset="1"/>
        </linearGradient>
    </defs>
    <g id="m7-logo-svg">
        <g id="svg_1">
            <g id="svg_2">
                <path id="svg_3" fill="#fff" d="m8.20213,9.36512q0.133,0.316 0.262,0.638q0.129,-0.33 0.267,-0.649t0.293,-0.616l3.931,-7.359a0.99,0.99 0 0 1 0.151,-0.221a0.468,0.468 0 0 1 0.174,-0.12a0.768,0.768 0 0 1 0.219,-0.045c0.079,-0.006 0.174,-0.009 0.285,-0.009l1.862,0l0,13.28l-2.174,0l0,-8.577c0,-0.159 0.005,-0.333 0.014,-0.523s0.023,-0.383 0.042,-0.577l-4.017,7.53a1.051,1.051 0 0 1 -0.36,0.4a0.928,0.928 0 0 1 -0.515,0.144l-0.337,0a0.926,0.926 0 0 1 -0.514,-0.144a1.047,1.047 0 0 1 -0.36,-0.4l-4.067,-7.56q0.037,0.3 0.05,0.592c0.009,0.193 0.014,0.373 0.014,0.537l0,8.578l-2.176,0l0,-13.279l1.864,0a2.7,2.7 0 0 1 0.288,0.009a0.768,0.768 0 0 1 0.216,0.045a0.5,0.5 0 0 1 0.179,0.12a0.908,0.908 0 0 1 0.156,0.221l3.965,7.374q0.155,0.294 0.288,0.611z" class="a04"/>
                <path id="svg_4" fill="#fff" d="m34.65213,7.62412a7.358,7.358 0 0 1 -0.487,2.7a6.406,6.406 0 0 1 -1.37,2.154a6.191,6.191 0 0 1 -2.121,1.419a7.664,7.664 0 0 1 -5.5,0a6.223,6.223 0 0 1 -2.126,-1.412a6.362,6.362 0 0 1 -1.37,-2.154a7.344,7.344 0 0 1 -0.487,-2.7a7.347,7.347 0 0 1 0.487,-2.7a6.366,6.366 0 0 1 1.37,-2.153a6.234,6.234 0 0 1 2.129,-1.419a7.186,7.186 0 0 1 2.753,-0.51a7.1,7.1 0 0 1 2.746,0.515a6.293,6.293 0 0 1 2.121,1.419a6.363,6.363 0 0 1 1.37,2.149a7.36,7.36 0 0 1 0.485,2.692zm-2.535,0a6.182,6.182 0 0 0 -0.288,-1.961a4.148,4.148 0 0 0 -0.832,-1.478a3.59,3.59 0 0 0 -1.318,-0.928a4.941,4.941 0 0 0 -3.5,0a3.616,3.616 0 0 0 -1.327,0.928a4.176,4.176 0 0 0 -0.84,1.474a6.1,6.1 0 0 0 -0.293,1.961a6.1,6.1 0 0 0 0.289,1.965a4.129,4.129 0 0 0 0.84,1.469a3.629,3.629 0 0 0 1.327,0.923a4.93,4.93 0 0 0 3.5,0a3.6,3.6 0 0 0 1.318,-0.923a4.1,4.1 0 0 0 0.83,-1.469a6.186,6.186 0 0 0 0.298,-1.961l-0.004,0z" class="a04"/>
                <path id="svg_5" fill="#fff" d="m45.48913,12.27212a3.253,3.253 0 0 0 1.281,-0.239a2.667,2.667 0 0 0 0.955,-0.67a2.937,2.937 0 0 0 0.6,-1.047a4.325,4.325 0 0 0 0.209,-1.377l0,-7.954l2.471,0l0,7.953a6.127,6.127 0 0 1 -0.381,2.19a4.938,4.938 0 0 1 -1.1,1.736a5,5 0 0 1 -1.736,1.139a6.659,6.659 0 0 1 -4.592,0a4.868,4.868 0 0 1 -2.824,-2.875a6.127,6.127 0 0 1 -0.381,-2.19l0,-7.953l2.47,0l0,7.943a4.305,4.305 0 0 0 0.207,1.377a3.018,3.018 0 0 0 0.592,1.052a2.6,2.6 0 0 0 0.951,0.675a3.251,3.251 0 0 0 1.277,0.239l0.001,0.001z" class="a04"/>
                <path id="svg_6" fill="#fff" d="m58.71213,0.99912a0.63,0.63 0 0 1 0.2,0.056a0.662,0.662 0 0 1 0.17,0.119a1.884,1.884 0 0 1 0.183,0.207l6.971,8.881q-0.037,-0.322 -0.05,-0.629t-0.014,-0.577l0,-8.071l2.177,0l0,13.28l-1.281,0a1.132,1.132 0 0 1 -0.487,-0.092a1.081,1.081 0 0 1 -0.376,-0.33l-6.943,-8.845q0.028,0.293 0.042,0.583c0.009,0.193 0.014,0.37 0.014,0.528l0,8.155l-2.177,0l0,-13.279l1.3,0a2.311,2.311 0 0 1 0.271,0.014z" class="a04"/>
                <path id="svg_7" fill="#fff" d="m83.80013,0.98512l0,2.03l-3.995,0l0,11.25l-2.474,0l0,-11.25l-4.01,0l0,-2.03l10.479,0z" class="a04"/>
                <path id="svg_8" fill="#fff" d="m97.74413,0.98512l0,0.983a2.177,2.177 0 0 1 -0.1,0.711a4.236,4.236 0 0 1 -0.189,0.455l-5.023,10.359a1.562,1.562 0 0 1 -0.44,0.546a1.212,1.212 0 0 1 -0.771,0.226l-1.643,0l5.142,-10.15a5.265,5.265 0 0 1 0.716,-1.075l-6.355,0a0.534,0.534 0 0 1 -0.524,-0.524l0,-1.531l9.187,0z" class="a04"/>
            </g>
            <title>Layer 2</title>
            <g stroke-width="1.25" id="tool" stroke="null">
                <path fill="none" id="svg_10" d="m108.80338,9.91418l3.90163,3.90163a1.77481,1.77481 0 0 0 2.50962,-2.50962l-3.93308,-3.93308m-2.47817,2.54108l1.67041,-2.02778c0.21215,-0.25699 0.49523,-0.41894 0.80843,-0.51263m-2.47884,2.54041l-3.11528,3.78317a1.70521,1.70521 0 1 1 -2.39987,-2.39987l4.57555,-3.76778m3.41844,-0.15593c0.36808,-0.10975 0.77832,-0.12582 1.16647,-0.09369a3.01155,3.01155 0 0 0 3.00218,-4.24026l-2.19241,2.19308a2.01038,2.01038 0 0 1 -1.50577,-1.50577l2.19241,-2.19241a3.01155,3.01155 0 0 0 -4.24026,3.00218c0.0609,0.72009 -0.04752,1.51514 -0.60499,1.97424l-0.06826,0.05688m-1.16781,0.96169l-2.74854,-2.74854l-0.94295,0l-1.50577,-2.50962l1.00385,-1.00385l2.50962,1.50577l0,0.94295l2.85093,2.85093m-1.16781,0.96169l1.16781,-0.96169m4.42698,5.49173l-1.75674,-1.75674m-7.28326,2.25866l0.00535,0l0,0.00535l-0.00535,0l0,-0.00535z" stroke-linejoin="round" stroke-linecap="round" stroke="url(#a)"/>
            </g>
        </g>
    </g>
</svg>
